<?xml version="1.0" standalone="no"?>
<!DOCTYPE svg PUBLIC "-//W3C//DTD SVG 20010904//EN"
 "http://www.w3.org/TR/2001/REC-SVG-20010904/DTD/svg10.dtd">
<svg version="1.0" xmlns="http://www.w3.org/2000/svg"
 width="1024.000000pt" height="1024.000000pt" viewBox="0 0 1024.000000 1024.000000"
 preserveAspectRatio="xMidYMid meet">
<metadata>
Created by potrace 1.14, written by Peter Selinger 2001-2017
</metadata>
<g transform="translate(0.000000,1024.000000) scale(0.100000,-0.100000)"
fill="#000000" stroke="none">
<path d="M4703 7520 c-504 -35 -998 -125 -1353 -245 -74 -26 -178 -54 -230
-64 -52 -10 -102 -21 -110 -25 -11 -4 -19 2 -26 23 -32 83 -183 88 -214 6 -5
-13 -10 -46 -12 -74 -4 -58 -9 -64 -59 -80 -100 -32 -635 -361 -758 -467 -84
-72 -79 -14 -82 -953 l-4 -832 -24 -12 c-13 -7 -34 -25 -45 -40 -20 -27 -21
-42 -25 -383 -2 -195 0 -379 4 -409 6 -53 7 -54 52 -69 147 -50 313 -234 363
-403 11 -36 15 -41 28 -30 9 7 43 12 81 12 l66 0 3 45 c2 29 -6 71 -24 120
-81 230 -81 216 -11 225 28 4 75 12 103 20 50 12 54 12 105 -16 68 -37 89 -56
105 -96 18 -42 19 -142 2 -125 -21 21 -65 14 -87 -13 -21 -27 -26 -46 -36
-132 -4 -29 -11 -53 -17 -53 -6 0 -32 -16 -60 -36 -54 -40 -47 -39 -260 -18
l-57 6 -25 54 c-37 81 -130 219 -179 267 -96 93 -228 132 -299 89 -73 -45
-134 -173 -110 -227 6 -14 23 -27 37 -31 l27 -7 -38 -38 c-21 -22 -45 -39 -53
-39 -20 0 -159 88 -170 107 -5 10 -5 29 0 47 12 42 11 153 -1 177 -13 23 -61
49 -90 49 -12 0 -43 -9 -69 -21 -38 -16 -59 -36 -108 -102 -78 -106 -84 -119
-76 -159 13 -72 48 -111 94 -105 19 2 31 -14 76 -98 55 -103 125 -185 175
-206 15 -6 28 -14 28 -18 -1 -21 -157 -112 -243 -140 -20 -7 -42 -21 -47 -31
-6 -11 -26 -21 -50 -25 -33 -6 -40 -11 -40 -30 0 -27 12 -33 86 -41 43 -5 58
-3 73 10 17 16 19 15 24 -20 4 -20 16 -47 28 -60 l22 -23 -46 -70 c-61 -89
-85 -147 -98 -233 -12 -77 -1 -148 28 -180 26 -29 76 -41 122 -28 49 13 83 64
101 154 10 47 73 186 85 186 1 0 25 -30 52 -68 40 -54 60 -71 98 -86 45 -18
58 -19 169 -8 67 7 150 12 186 12 42 0 77 6 100 18 46 23 83 78 76 115 -3 15
-3 27 1 27 3 0 31 -19 60 -42 51 -39 54 -44 48 -72 -17 -74 -24 -125 -24 -182
l-1 -62 -93 -21 c-137 -32 -183 -67 -194 -148 -4 -31 1 -47 26 -84 18 -27 48
-55 69 -65 36 -18 140 -19 3005 -22 2097 -2 2979 0 3007 8 89 24 141 105 119
185 -12 44 -76 117 -119 135 -26 11 -28 18 -45 125 l-18 115 29 22 c16 12 46
39 68 60 43 43 46 44 46 23 0 -37 41 -95 83 -117 37 -20 60 -23 187 -26 228
-6 276 13 329 133 11 26 25 44 30 41 30 -19 102 -149 116 -211 9 -38 23 -81
31 -96 16 -31 61 -59 94 -59 38 0 89 29 110 62 18 29 21 45 17 123 -3 75 -9
102 -36 165 -19 41 -48 96 -67 122 l-33 47 37 32 c35 31 37 36 35 88 l-2 56
56 0 c61 0 79 16 41 36 -13 7 -66 29 -120 49 -53 20 -119 51 -147 69 l-51 33
79 47 c43 26 91 58 107 70 26 20 69 91 106 174 10 21 19 27 45 27 70 0 101 80
61 155 -35 68 -145 203 -178 220 -16 8 -45 15 -65 15 -81 0 -111 -90 -81 -237
l16 -78 -37 -32 c-68 -58 -78 -60 -107 -26 -14 17 -45 39 -68 49 -34 13 -39
18 -23 22 11 2 28 11 38 20 39 35 5 162 -62 230 -67 66 -219 81 -297 29 -80
-55 -173 -202 -219 -347 -10 -30 -19 -56 -20 -58 -1 -1 -49 22 -106 51 -57 29
-119 58 -137 65 -27 9 -32 16 -32 42 0 22 -9 41 -30 62 -27 27 -36 30 -73 25
-54 -7 -70 -29 -64 -88 5 -58 29 -91 89 -124 52 -28 111 -75 105 -82 -8 -7
-161 29 -203 48 -23 11 -54 34 -68 50 -15 17 -33 28 -39 26 -19 -6 -20 -43 -1
-79 51 -100 131 -154 241 -165 39 -4 71 -14 97 -32 31 -20 54 -26 112 -29 69
-4 73 -5 85 -33 16 -40 61 -76 112 -90 23 -6 48 -13 55 -15 10 -3 9 -10 -3
-33 -8 -17 -15 -39 -15 -49 0 -18 -8 -20 -112 -19 -62 0 -131 -5 -154 -11 -88
-25 -155 -97 -196 -211 -17 -46 -21 -82 -22 -206 0 -82 3 -173 7 -201 l8 -51
-86 -7 c-48 -3 -116 -3 -150 0 l-62 6 -5 742 -6 741 23 40 c30 53 88 85 151
85 59 -1 261 -43 277 -59 7 -7 0 -15 -26 -26 -20 -8 -43 -15 -51 -15 -30 0
-24 -18 19 -53 24 -21 70 -73 101 -117 l57 -79 21 62 c23 67 70 147 86 147 6
0 10 5 10 10 0 6 -6 10 -14 10 -20 0 -46 39 -46 68 0 62 51 107 135 119 l45 6
0 359 c0 232 -4 375 -11 404 -12 47 -56 94 -88 94 -14 0 -20 11 -25 48 -13 98
-26 691 -26 1205 0 420 -3 534 -14 560 -12 31 -78 97 -95 97 -5 0 -12 15 -15
33 -11 57 -54 112 -110 140 -84 43 -318 152 -367 172 l-47 19 -4 61 c-8 93
-37 125 -114 125 -27 0 -43 -8 -65 -31 -16 -17 -29 -38 -29 -46 0 -20 -1 -20
-265 65 -301 96 -302 96 -550 146 -233 47 -418 76 -655 102 -169 18 -816 27
-1007 14z m907 -315 c586 -57 1095 -168 1555 -340 142 -54 579 -255 602 -278
10 -9 15 -93 20 -315 3 -166 4 -302 1 -302 -4 0 -36 71 -73 159 -78 185 -98
211 -158 211 -59 0 -100 -28 -128 -89 -26 -54 -46 -65 -53 -28 -31 147 -41
187 -55 214 -24 48 -111 133 -175 172 -49 29 -66 34 -124 34 -85 1 -123 -20
-164 -91 -23 -40 -29 -62 -26 -91 l3 -39 -37 19 c-20 10 -70 24 -110 30 -102
16 -114 22 -128 66 -27 83 -98 220 -125 241 -46 36 -92 30 -172 -24 -37 -26
-81 -58 -97 -73 -23 -21 -30 -23 -34 -11 -10 27 -106 122 -144 141 -43 22 -66
23 -119 8 -80 -24 -160 -122 -200 -244 -22 -67 -23 -70 -11 -349 31 -738 35
-864 29 -879 -5 -14 -22 -17 -99 -17 -51 0 -129 3 -173 6 l-80 7 -3 151 c-1
83 -7 285 -13 448 -6 164 -8 318 -5 343 9 58 59 110 122 127 24 7 44 16 44 20
0 5 -11 6 -23 2 -23 -5 -24 -4 -30 84 -4 53 -16 114 -28 147 -29 78 -120 169
-214 215 -61 29 -82 35 -162 38 -158 7 -278 -40 -390 -155 -50 -50 -66 -74
-79 -119 -19 -66 -14 -127 16 -189 19 -39 19 -57 13 -587 l-6 -547 -66 -6
c-36 -3 -99 -10 -139 -16 -40 -5 -89 -9 -107 -9 l-34 0 5 83 c3 45 11 165 19
267 8 102 17 241 20 310 3 69 13 185 21 258 26 248 16 314 -62 401 -85 94
-169 112 -279 59 l-47 -23 -17 25 c-31 49 -76 90 -106 99 -51 14 -120 -10
-172 -60 -57 -56 -77 -95 -108 -216 -18 -70 -32 -103 -48 -115 -25 -19 -92
-38 -134 -38 -31 0 -33 2 -96 115 -51 90 -78 119 -140 145 -64 28 -114 21
-193 -26 -104 -63 -157 -131 -214 -279 -13 -33 -30 -68 -39 -79 -32 -37 -123
-70 -133 -48 -9 21 -75 63 -118 76 -95 28 -150 -11 -230 -165 -64 -123 -71
-112 -68 98 l3 177 80 63 c189 148 430 285 647 368 712 273 1182 377 1983 439
115 9 650 -4 805 -19z m1038 -766 c26 -6 77 -20 114 -30 75 -22 73 -18 34
-104 -32 -67 -46 -214 -61 -620 -8 -225 -15 -434 -15 -464 l0 -54 -47 7 c-25
3 -48 8 -50 9 -2 2 3 17 11 33 17 37 32 194 17 194 -15 0 -92 -111 -98 -142
-6 -33 -12 -33 -113 -12 l-75 16 1 452 c1 299 5 465 13 492 12 45 41 77 84 93
41 16 60 14 185 -16 96 -22 115 -24 122 -13 14 22 -13 44 -77 64 -94 30 -113
42 -113 76 0 34 3 34 68 19z m-3060 -223 c33 -17 69 -78 78 -132 4 -30 0 -55
-20 -104 l-26 -63 0 -353 0 -352 -57 -7 c-32 -3 -68 -9 -80 -12 -16 -4 -23 -1
-23 10 0 8 -21 43 -46 77 -25 34 -59 84 -76 111 -16 27 -32 49 -34 49 -2 0 -2
-17 0 -37 3 -21 8 -86 11 -145 l6 -108 -39 0 -38 0 3 138 c5 214 32 691 43
755 16 101 57 149 147 173 64 17 118 17 151 0z m1496 -125 c28 -17 63 -45 76
-63 22 -30 25 -44 28 -143 l4 -110 -41 46 c-47 54 -120 89 -201 96 -89 8 -134
-20 -195 -122 -9 -14 -12 95 -6 187 2 30 51 76 113 107 83 42 150 42 222 2z
m-2310 -109 c45 -40 49 -70 57 -417 4 -181 8 -359 10 -394 l3 -64 -45 -14
c-55 -16 -235 -63 -245 -63 -4 0 -5 114 -1 253 4 194 2 259 -8 282 -14 34 -10
298 6 351 27 88 154 126 223 66z m1161 10 c14 -10 115 -138 154 -195 l32 -47
-11 -223 c-7 -122 -14 -227 -15 -233 -4 -12 -42 -20 -156 -30 l-76 -7 -28 149
c-15 82 -38 195 -51 252 -37 161 -28 281 24 322 25 20 106 28 127 12z m2211
-12 c27 -14 48 -33 58 -54 17 -35 21 -110 9 -166 l-6 -33 -11 34 c-9 29 -19
37 -61 51 -93 32 -197 18 -250 -32 -21 -20 -21 -20 -43 26 -17 34 -20 50 -12
64 19 35 200 129 249 130 14 0 44 -9 67 -20z m1264 -8 c45 -33 64 -87 67 -192
8 -310 25 -728 29 -742 4 -14 -1 -18 -20 -18 -30 0 -135 23 -228 51 l-67 19 5
343 c6 375 14 475 39 513 35 53 120 66 175 26z m-359 -208 c34 -37 36 -130 8
-401 -19 -191 -25 -223 -38 -219 -9 3 -34 7 -57 11 l-40 6 -3 275 c-2 287 0
300 43 336 30 25 59 22 87 -8z m756 -40 c7 -10 13 -46 13 -83 1 -36 7 -210 14
-386 8 -176 13 -321 12 -322 -2 -2 -25 4 -53 12 -48 14 -52 18 -57 53 -16 96
-68 546 -73 622 -4 78 -3 87 18 109 19 20 29 23 67 18 28 -3 51 -12 59 -23z
m-5528 -1 c30 -26 44 -111 30 -183 -7 -36 -10 -154 -7 -323 l3 -267 -70 -34
c-97 -48 -167 -78 -170 -74 -2 2 1 41 6 88 5 47 12 225 15 395 4 171 10 319
14 330 8 22 113 84 141 85 9 0 26 -8 38 -17z m3616 -687 c275 -22 520 -51 661
-80 66 -13 166 -32 224 -41 58 -9 130 -23 161 -31 31 -8 128 -27 215 -44 227
-42 511 -114 639 -161 61 -22 116 -42 123 -44 8 -3 12 -33 12 -102 0 -54 3
-177 6 -273 l7 -175 -39 36 c-112 105 -229 102 -252 -6 -6 -30 -7 -59 0 -81
17 -64 -19 -114 -81 -114 -49 0 -60 13 -72 92 -25 166 -37 194 -123 294 -33
39 -78 92 -99 118 -21 25 -55 53 -75 62 -49 22 -148 22 -188 1 -66 -34 -117
-131 -163 -306 -33 -125 -50 -158 -85 -167 -21 -5 -212 29 -223 40 -2 2 14 41
37 87 38 74 42 89 38 138 -7 87 -67 278 -102 325 -20 26 -53 52 -91 71 -57 28
-66 30 -180 29 -176 0 -284 -37 -376 -128 -79 -78 -100 -117 -111 -203 -11
-87 -63 -268 -79 -279 -20 -12 -114 -8 -143 7 -55 26 -66 54 -76 185 -11 140
-19 170 -61 235 -58 91 -203 169 -314 169 -106 0 -250 -75 -324 -169 -39 -49
-92 -180 -110 -271 -16 -82 -32 -112 -77 -146 -30 -23 -48 -28 -112 -32 -101
-5 -133 14 -181 111 -33 66 -34 71 -32 175 1 59 -2 118 -7 132 -5 14 -35 39
-73 61 -35 21 -89 53 -119 71 -83 50 -240 118 -285 125 -34 4 -44 1 -67 -22
-30 -30 -88 -138 -88 -165 0 -9 5 -21 11 -27 9 -9 1 -23 -34 -56 -74 -72 -107
-158 -107 -278 0 -79 -22 -159 -51 -185 -15 -14 -40 -20 -93 -22 -107 -6 -111
0 -136 171 -23 153 -43 206 -98 262 -46 46 -152 108 -214 125 -52 14 -125 7
-170 -16 -32 -17 -78 -90 -78 -125 0 -13 9 -38 19 -55 l19 -32 -23 -10 c-44
-20 -74 -75 -95 -172 -38 -171 -72 -225 -152 -245 -27 -7 -28 -6 -28 31 0 22
-11 71 -25 109 -38 107 -96 146 -197 132 -60 -8 -90 -35 -112 -100 -10 -31
-22 -57 -27 -57 -8 0 -1 549 7 559 10 12 282 126 362 152 100 32 351 96 482
124 196 41 323 64 405 75 50 6 153 20 230 30 77 11 199 24 270 30 72 6 191 17
265 25 423 45 632 54 1195 50 300 -2 529 -9 660 -19z m-273 -1112 c62 -32 108
-130 108 -231 0 -29 -2 -53 -4 -53 -3 0 -19 14 -36 31 -28 29 -35 31 -76 25
-76 -10 -111 -46 -122 -124 l-7 -47 -60 -6 c-33 -4 -68 -10 -78 -14 -13 -6
-20 0 -32 28 -55 132 -221 191 -350 124 -93 -48 -135 -107 -150 -210 -7 -54
-22 -64 -107 -74 -54 -6 -80 7 -195 101 -56 46 -63 56 -68 96 -12 95 -56 125
-117 80 -16 -12 -33 -19 -36 -15 -4 3 -8 39 -10 78 -3 87 19 134 86 182 38 26
52 30 112 30 78 0 110 -17 145 -76 18 -30 20 -50 18 -173 -2 -137 -2 -140 22
-162 l25 -23 0 23 c0 43 120 196 154 196 8 0 40 19 73 43 74 55 114 71 175 70
56 -1 153 -45 215 -98 l38 -32 1 66 c1 101 30 144 122 177 42 16 111 10 154
-12z m1084 -70 c21 -11 47 -32 58 -47 20 -28 21 -44 27 -540 4 -282 10 -620
13 -753 l7 -241 -63 -6 c-34 -3 -101 -3 -150 0 l-88 6 0 66 c0 62 -27 518 -50
841 -12 164 -33 338 -55 453 -8 43 -12 91 -9 105 10 39 39 94 61 114 42 38
174 39 249 2z m-3198 -19 c44 -19 78 -49 100 -90 20 -36 21 -200 3 -383 -17
-168 -31 -533 -31 -834 l0 -268 -59 0 c-109 0 -110 1 -164 110 -46 94 -81 150
-95 150 -4 0 -6 -58 -4 -130 l3 -130 -28 0 -29 0 4 743 c4 849 -1 798 88 829
62 22 163 23 212 3z m2740 -93 c8 -6 3 -9 -16 -9 -53 0 -113 -59 -81 -79 8 -4
9 0 4 15 -5 17 -3 20 12 15 15 -5 16 -4 3 5 -12 8 -8 11 18 11 20 0 31 -4 27
-10 -4 -6 -11 -8 -16 -5 -14 9 -11 -8 7 -33 21 -31 34 -28 34 9 0 17 4 28 10
24 6 -3 10 -24 10 -46 0 -21 4 -39 8 -39 4 0 6 15 4 34 -2 19 1 43 6 53 8 14
10 8 7 -27 -4 -36 -3 -40 4 -20 8 22 10 19 10 -20 0 -71 18 -590 30 -870 6
-140 12 -305 14 -366 l2 -112 -171 -7 c-93 -3 -187 -4 -207 0 l-37 7 0 402 c0
220 3 417 6 437 5 28 13 39 38 50 53 24 68 68 63 187 -4 120 -17 145 -86 172
-31 12 -39 19 -28 23 9 3 19 2 22 -3 8 -12 25 -13 25 -1 0 5 -9 11 -21 14 -19
5 -20 12 -17 94 3 79 5 88 23 90 11 2 14 0 7 -3 -9 -4 -11 -21 -6 -65 4 -40 3
-64 -5 -73 -8 -10 -9 -16 -1 -21 5 -3 10 1 10 9 0 9 6 15 13 14 7 -2 14 10 16
27 l4 30 8 -25 c8 -22 8 -22 6 7 -3 24 0 30 8 23 7 -5 15 -7 19 -3 3 4 12 -2
20 -12 18 -25 41 -14 65 33 22 43 37 58 66 65 32 8 49 7 63 -1z m-224 -34 c19
-26 20 -38 5 -38 -5 0 -7 5 -4 10 3 6 1 10 -4 10 -6 0 -11 7 -11 15 0 12 -4
13 -19 6 -15 -8 -18 -20 -15 -63 l3 -53 -9 54 c-11 75 20 109 54 59z m250 -2
c-3 -9 -10 -13 -15 -10 -5 3 -3 11 4 19 15 16 19 13 11 -9z m-2284 -121 c43
-45 69 -45 98 0 12 19 29 35 36 35 15 0 39 -68 56 -158 8 -42 6 -50 -14 -72
-50 -54 -50 -53 -48 -420 1 -190 5 -424 8 -521 l7 -176 -120 -7 c-65 -4 -148
-4 -183 0 l-65 6 3 540 c2 508 3 540 20 532 9 -5 40 -8 68 -7 94 2 124 54 89
153 -22 62 -20 130 5 130 3 0 21 -16 40 -35z m1640 -35 c28 -56 91 -117 129
-125 31 -7 52 -26 35 -32 -5 -2 -59 -32 -119 -68 -60 -36 -116 -65 -125 -65
-8 0 -23 9 -33 20 -37 43 -115 25 -203 -46 -47 -39 -54 -41 -54 -16 0 9 -9 28
-20 42 -27 34 -26 37 18 51 20 7 69 31 107 54 106 64 131 75 170 75 l35 0 -6
54 c-6 46 -4 56 15 75 11 11 23 21 26 21 2 0 14 -18 25 -40z m-2818 -79 c5
-58 4 -107 -1 -110 -4 -3 -11 -31 -15 -61 -3 -30 -8 -70 -11 -89 -2 -19 -7
-58 -11 -85 -7 -47 -8 -49 -15 -21 -6 27 -7 25 -8 -14 -2 -72 -19 -35 -22 45
-2 61 1 76 19 99 40 50 27 120 -33 180 -27 26 -34 39 -26 48 5 7 13 36 17 65
l7 53 46 -3 46 -3 7 -104z m6178 34 c0 -39 -6 -52 -41 -90 -23 -24 -66 -61
-97 -81 -32 -21 -77 -50 -100 -66 -24 -16 -48 -30 -53 -31 -5 -1 -20 17 -35
41 -23 39 -24 43 -7 47 100 30 323 175 323 210 0 8 2 15 5 15 3 0 5 -20 5 -45z
m-7764 4 c42 -46 181 -148 234 -173 25 -11 47 -21 48 -23 9 -4 -64 -92 -77
-93 -15 0 -74 48 -179 146 -64 60 -90 112 -76 157 7 24 16 22 50 -14z m3229
-115 c22 -14 66 -46 98 -73 60 -50 97 -65 185 -77 l52 -7 0 -58 c0 -38 -4 -59
-12 -59 -24 0 -214 114 -287 173 -42 34 -92 74 -111 89 -29 23 -32 29 -20 37
18 13 43 6 95 -25z m26 -223 c77 -55 207 -122 295 -150 l50 -16 -25 -93 c-25
-91 -26 -92 -61 -98 -144 -24 -217 -86 -272 -229 -20 -52 -23 -78 -23 -193 l0
-133 -78 3 -78 3 -6 475 -5 475 48 16 c36 11 53 12 65 5 9 -6 50 -35 90 -65z
m1271 -504 l3 -407 -72 0 -72 0 2 153 c2 152 2 152 -28 205 -16 30 -56 77 -88
105 -32 29 -86 77 -120 108 l-61 57 34 10 c19 5 42 13 51 16 11 5 18 1 22 -13
8 -33 50 -46 96 -32 32 9 42 18 52 48 11 34 8 141 -5 188 -5 17 8 28 81 71
l88 51 7 -76 c4 -42 8 -259 10 -484z m-3329 507 c28 -23 38 -26 94 -22 l63 4
0 -449 0 -448 -101 2 -102 2 7 56 c3 31 10 90 15 131 17 130 14 232 -10 297
-27 71 -93 139 -173 178 -50 25 -71 29 -131 28 -39 -1 -76 -3 -83 -5 -10 -2
-48 79 -52 110 0 1 9 2 20 2 11 0 52 16 91 36 53 26 74 43 82 64 13 35 22 37
151 39 92 1 100 -1 129 -25z m4585 -58 c2 19 32 31 32 13 0 -4 14 -3 31 3 19
7 28 15 25 24 -3 8 1 14 9 14 8 0 15 -7 15 -15 0 -11 11 -15 40 -15 34 0 40 3
41 23 1 16 2 18 6 5 2 -10 9 -18 14 -18 5 0 10 8 10 18 1 14 2 14 6 -2 3 -11
11 -26 19 -34 11 -10 14 -55 14 -205 1 -106 3 -297 6 -424 l5 -233 -148 0
-148 0 1 338 c0 435 5 593 14 532 4 -25 8 -36 8 -24z m-4238 -156 c4 -3 9 -14
11 -25 2 -11 14 -24 26 -30 11 -6 28 -17 37 -24 9 -7 28 -11 43 -8 27 5 87
-26 127 -67 19 -19 19 -19 -10 -13 -29 6 -29 6 -4 -5 14 -7 28 -17 32 -22 4
-6 10 -7 15 -3 4 5 3 11 -3 15 -5 4 -7 21 -4 37 13 63 22 -57 24 -301 l1 -242
-160 -4 c-88 -3 -166 -3 -173 0 -16 5 -16 667 0 722 l11 35 10 -30 c5 -16 13
-32 17 -35z m-968 -148 c27 -55 30 -71 25 -119 -3 -30 -8 -58 -12 -61 -3 -3
-43 -8 -90 -10 -81 -4 -85 -4 -94 19 -10 25 -52 118 -59 132 -2 4 4 7 13 7 22
0 135 115 135 138 1 27 47 -32 82 -106z m6656 79 c7 -16 31 -50 54 -75 37 -42
39 -48 25 -64 -8 -9 -27 -43 -42 -74 -25 -55 -28 -58 -63 -58 -20 0 -53 3 -73
6 l-36 6 9 47 c4 25 13 62 19 81 11 36 80 160 89 160 3 0 11 -13 18 -29z
m-3444 -387 c38 -17 63 -23 83 -18 44 10 102 53 126 95 l23 37 71 -83 71 -83
-6 -93 -7 -94 -92 -3 c-81 -2 -92 -1 -95 15 -3 15 -13 17 -79 15 -75 -4 -77
-3 -83 22 -6 24 -11 26 -56 26 l-50 0 0 -45 0 -45 -124 0 c-120 0 -124 1 -130
23 -10 38 -6 151 7 174 7 12 48 59 92 105 l80 83 57 -53 c32 -29 82 -64 112
-78z"/>
<path d="M4710 4966 c0 -62 5 -66 81 -66 62 0 70 2 85 24 8 14 14 35 12 48 -3
22 -8 23 -90 26 l-88 3 0 -35z"/>
<path d="M3458 4865 c-85 -17 -88 -19 -79 -53 8 -26 10 -27 67 -25 32 1 87 5
122 8 l62 7 0 39 0 39 -52 -1 c-29 0 -83 -7 -120 -14z"/>
<path d="M3060 4801 c-14 -27 -13 -37 6 -55 37 -37 89 7 64 55 -14 25 -56 25
-70 0z"/>
<path d="M7652 4630 c0 -14 2 -19 5 -12 2 6 2 18 0 25 -3 6 -5 1 -5 -13z"/>
<path d="M7660 4588 c0 -7 4 -19 9 -27 16 -26 202 -83 218 -67 17 17 -20 43
-103 73 -98 35 -124 39 -124 21z"/>
<path d="M6658 4164 c-2 -53 0 -98 5 -101 4 -2 21 -1 38 2 30 7 31 9 25 46 -8
51 -45 149 -56 149 -5 0 -10 -43 -12 -96z"/>
<path d="M6631 3046 c-27 -49 34 -113 66 -70 16 22 17 66 1 82 -20 20 -54 14
-67 -12z m34 -26 c1 -14 -2 -17 -10 -10 -7 5 -15 7 -18 3 -4 -3 -7 1 -7 10 0
14 20 29 29 20 3 -2 5 -12 6 -23z m14 -27 c14 11 14 10 2 -5 -7 -10 -17 -18
-21 -18 -4 0 -11 8 -15 18 -5 13 -4 14 6 5 10 -10 16 -10 28 0z"/>
<path d="M6685 2719 c-51 -39 -54 -59 -11 -59 31 0 48 22 44 55 l-3 27 -30
-23z"/>
<path d="M6759 2593 c-44 -111 -47 -139 -10 -79 22 35 40 106 27 106 -4 0 -11
-12 -17 -27z"/>
<path d="M6120 3642 c0 -4 10 -13 23 -21 22 -14 22 -14 3 8 -20 22 -26 25 -26
13z"/>
<path d="M6025 3630 c3 -5 8 -10 11 -10 2 0 4 5 4 10 0 6 -5 10 -11 10 -5 0
-7 -4 -4 -10z"/>
<path d="M6055 3610 c3 -5 8 -10 11 -10 2 0 4 5 4 10 0 6 -5 10 -11 10 -5 0
-7 -4 -4 -10z"/>
<path d="M5985 3520 c3 -5 11 -10 16 -10 6 0 7 5 4 10 -3 6 -11 10 -16 10 -6
0 -7 -4 -4 -10z"/>
<path d="M3810 3316 c0 -10 28 -13 41 -5 10 6 7 9 -13 9 -16 0 -28 -2 -28 -4z"/>
<path d="M2254 3103 c-54 -5 -67 -36 -25 -58 16 -8 36 -25 45 -39 19 -30 36
-34 36 -8 0 9 9 34 20 55 33 61 34 60 -76 50z"/>
<path d="M2922 2844 c10 -10 20 -16 22 -13 3 3 -5 11 -17 18 -21 13 -21 12 -5
-5z"/>
<path d="M7708 3045 c-2 -69 -2 -125 -1 -125 1 0 34 23 74 50 40 28 80 50 89
50 30 0 29 11 -3 54 -18 23 -39 51 -47 63 -10 14 -30 23 -62 27 l-47 5 -3
-124z"/>
<path d="M7585 2979 c-9 -14 3 -59 16 -59 25 0 49 22 49 45 0 21 -5 25 -29 25
-17 0 -33 -5 -36 -11z"/>
<path d="M27 103 c-25 -4 -27 -8 -27 -54 0 -48 1 -49 30 -49 30 0 30 1 30 55
0 30 -1 54 -2 54 -2 -1 -15 -4 -31 -6z"/>
</g>
</svg>
